
        <svg xmlns="http://www.w3.org/2000/svg" xmlns:xlink="http://www.w3.org/1999/xlink" version="1.1" width="3181.8181818181824" 
        height="2514.729590335152" viewBox="0 0 3181.8181818181824 2514.729590335152">
			<rect fill="#1c96e8" width="3181.8181818181824" height="2514.729590335152"/>
			<g transform="scale(9.090909090909092) translate(10, 10)">
				<defs id="SvgjsDefs2830"></defs><g id="SvgjsG2831" featureKey="ghXSps-0" transform="matrix(-2.657565830930584,0,0,2.657565830930584,301.20822982541307,-60.917608317955)" fill="#ffffff"><title xmlns="http://www.w3.org/2000/svg">Cloud - Zwarte Schaduw - Noun_Project_20Icon_5px_grid samengesteld pad</title><path xmlns="http://www.w3.org/2000/svg" d="M87,55a10.36,10.36,0,0,1-3.68,7.91,10.89,10.89,0,0,1-9.7,6H71.3q.11-.5.19-1h2.13a9.88,9.88,0,0,0,0-19.77H71.09a.5.5,0,0,1-.47-.67A15.6,15.6,0,0,0,41.61,36a.5.5,0,0,1-.63.28,10.06,10.06,0,0,0-13.4,9.49,10.15,10.15,0,0,0,.15,1.75.5.5,0,0,1-.49.59H26.4a9.88,9.88,0,0,0,0,19.77h2.44q.08.5.19,1H26.4a10.87,10.87,0,0,1-4.89-20.59A10.41,10.41,0,0,1,26.63,45a11.06,11.06,0,0,1,6-9.06,10.53,10.53,0,0,1,8-3.73,10.27,10.27,0,0,1,1.85.19,16.54,16.54,0,0,1,5-4.6A16.09,16.09,0,0,1,74.09,44.65h2.53A10.41,10.41,0,0,1,87,55ZM42.42,73.12a24.06,24.06,0,0,1-1.69-8.35H32.06a18,18,0,0,0,4.46,11.51A24,24,0,0,1,42.42,73.12ZM32.07,63.77h8.67a24,24,0,0,1,1.7-8.16,25.07,25.07,0,0,1-5.91-3.13A18,18,0,0,0,32.07,63.77Zm17.56,1h-7.9a23.08,23.08,0,0,0,1.62,8,22.46,22.46,0,0,1,6.27-1.13ZM43.77,55a21.4,21.4,0,0,0,5.86,1.08V47.21A21.45,21.45,0,0,0,43.77,55ZM56.9,56a21.75,21.75,0,0,1-6.26,1.14v6.66h7.9A23,23,0,0,0,56.9,56ZM49.63,81.6V72.66a21.43,21.43,0,0,0-5.89,1.05A21.46,21.46,0,0,0,49.63,81.6Zm1-34.39v8.9A20.71,20.71,0,0,0,56.51,55,21.45,21.45,0,0,0,50.63,47.21Zm-1,16.56V57.1a22.45,22.45,0,0,1-6.25-1.15,23,23,0,0,0-1.64,7.82Zm-6.8-9.08a22.43,22.43,0,0,1,6.33-8.38,18.05,18.05,0,0,0-12,5.42A24.11,24.11,0,0,0,42.83,54.69ZM42.8,74a23,23,0,0,0-5.6,3,18.05,18.05,0,0,0,11.89,5.43A22.46,22.46,0,0,1,42.8,74ZM57.45,54.71a24.08,24.08,0,0,0,5.64-3,18.05,18.05,0,0,0-12-5.39A22.43,22.43,0,0,1,57.45,54.71Zm0,19.39a22.44,22.44,0,0,1-6.27,8.35A18.06,18.06,0,0,0,63,77.15,24.65,24.65,0,0,0,57.44,74.1Zm.39-18.47a24,24,0,0,1,1.69,8.14h8.73a18,18,0,0,0-4.49-11.32A25.06,25.06,0,0,1,57.83,55.63ZM56.51,73.75a19.94,19.94,0,0,0-5.87-1.09V81.6A21.44,21.44,0,0,0,56.51,73.75Zm-5.87-9v6.89a21,21,0,0,1,6.26,1.17,23.09,23.09,0,0,0,1.64-8.06Zm17.63,0H59.54a24.07,24.07,0,0,1-1.71,8.41,25.66,25.66,0,0,1,5.86,3.22A18,18,0,0,0,68.26,64.77Z"></path></g><g id="SvgjsG2832" featureKey="anH1Ye-0" transform="matrix(4.13119614809237,0,0,4.13119614809237,-5.701047217329687,154.36956086957892)" fill="#c8f64a"><path d="M4.52 5.720000000000001 l0 11.64 l6.96 0 l0 2.64 l-10.1 0 l0 -14.28 l3.14 0 z M15.86 5.720000000000001 l0 2.34 l-2.84 0 l0 -2.34 l2.84 0 z M15.86 9.66 l0 10.34 l-2.84 0 l0 -10.34 l2.84 0 z M24.04 9.38 c1.32 0 2.2766 0.33338 2.87 1 s0.89 1.7267 0.89 3.18 l0 6.44 l-2.84 0 l0 -5.86 c0 -0.85334 -0.13666 -1.4867 -0.41 -1.9 s-0.74334 -0.62 -1.41 -0.62 c-0.77334 0 -1.3333 0.23334 -1.68 0.7 s-0.52 1.2333 -0.52 2.3 l0 5.38 l-2.84 0 l0 -10.34 l2.7 0 l0 1.44 l0.06 0 c0.70666 -1.1467 1.7667 -1.72 3.18 -1.72 z M32.8 5.720000000000001 l0 5.38 l0.06 0 c0.32 -0.53334 0.75334 -0.95334 1.3 -1.26 s1.1267 -0.46 1.74 -0.46 c1.32 0 2.2766 0.33334 2.87 1 s0.89 1.72 0.89 3.16 l0 6.46 l-2.84 0 l0 -5.88 c0 -0.84 -0.13666 -1.4667 -0.41 -1.88 s-0.74334 -0.62 -1.41 -0.62 c-0.76 0 -1.3167 0.23 -1.67 0.69 s-0.53 1.2167 -0.53 2.27 l0 5.42 l-2.84 0 l0 -14.28 l2.84 0 z M48.58 5.720000000000001 c1.52 0 2.72 0.41334 3.6 1.24 s1.32 1.94 1.32 3.34 c0 1.4133 -0.44 2.53 -1.32 3.35 s-2.0734 1.23 -3.58 1.23 l-3.34 0 l0 5.12 l-3.14 0 l0 -14.28 l6.46 0 z M47.75999999999999 12.440000000000001 c0.90666 0 1.5833 -0.16666 2.03 -0.5 s0.67 -0.88 0.67 -1.64 c0 -0.73334 -0.21666 -1.2733 -0.65 -1.62 s-1.11 -0.52 -2.03 -0.52 l-2.52 0 l0 4.28 l2.5 0 z M58.08 5.720000000000001 l0 14.28 l-2.84 0 l0 -14.28 l2.84 0 z M63.16 9.66 l0 5.86 c0 0.8 0.12666 1.42 0.38 1.86 s0.73334 0.66 1.44 0.66 c0.78666 0 1.35 -0.23334 1.69 -0.7 s0.51 -1.2133 0.51 -2.24 l0 -5.44 l2.84 0 l0 10.34 l-2.7 0 l0 -1.44 l-0.06 0 c-0.70666 1.1467 -1.7667 1.72 -3.18 1.72 c-1.3467 0 -2.31 -0.34334 -2.89 -1.03 s-0.87 -1.7433 -0.87 -3.17 l0 -6.42 l2.84 0 z M76.41999999999999 9.38 c1.3867 0 2.47 0.28002 3.25 0.84002 s1.2167 1.38 1.31 2.46 l-2.7 0 c-0.04 -0.49334 -0.22 -0.85 -0.54 -1.07 s-0.78666 -0.33 -1.4 -0.33 c-0.53334 0 -0.93 0.08 -1.19 0.24 s-0.39 0.4 -0.39 0.72 c0 0.24 0.08666 0.44 0.26 0.6 s0.43668 0.3 0.79002 0.42 s0.74334 0.22 1.17 0.3 c1.2933 0.25334 2.2066 0.51334 2.74 0.78 s0.92334 0.58666 1.17 0.96 s0.37 0.83334 0.37 1.38 c0 1.16 -0.42334 2.05 -1.27 2.67 s-1.9967 0.93 -3.45 0.93 c-1.52 0 -2.7034 -0.32666 -3.55 -0.98 s-1.2833 -1.54 -1.31 -2.66 l2.7 0 c0 0.53334 0.20666 0.95668 0.62 1.27 s0.93334 0.47 1.56 0.47 c0.53334 0 0.97668 -0.11666 1.33 -0.35 s0.53 -0.55668 0.53 -0.97002 c0 -0.26666 -0.11 -0.48666 -0.33 -0.66 s-0.53 -0.32668 -0.93 -0.46002 s-1.02 -0.28668 -1.86 -0.46002 c-0.66666 -0.13334 -1.26 -0.31334 -1.78 -0.54 s-0.91666 -0.52332 -1.19 -0.88998 s-0.41 -0.81666 -0.41 -1.35 c0 -0.68 0.16334 -1.2733 0.49 -1.78 s0.82666 -0.89 1.5 -1.15 s1.51 -0.39 2.51 -0.39 z"></path></g><g id="SvgjsG2833" featureKey="XxVAgm-0" transform="matrix(0.5986287912728132,0,0,0.5986287912728132,36.28164542192778,244.5279528964383)" fill="#ffffff"><path d="M3.4 17.96 l6.34 0 l0 2.04 l-6.74 0 l-1.8 0 l0 -14 l2.2 0 l6.16 0 l0 2.04 l-6.16 0 l0 3.92 l4.74 0 l0 2 l-4.74 0 l0 4 z M34.672000000000004 20 l-2.6 0 l-3.6 -5.24 l-3.58 5.24 l-2.6 0 l4.88 -7.14 l-4.72 -6.86 l2.6 0 l3.42 4.96 l3.38 -4.96 l2.6 0 l-4.68 6.86 z M59.56400000000001 18.5 c-1.26 1.1 -2.9 1.7 -4.72 1.7 c-3.76 0 -7.22 -2.96 -7.22 -7.2 s3.46 -7.2 7.22 -7.2 c1.8 0 3.42 0.6 4.66 1.66 l-1.34 1.52 c-0.88 -0.68 -2.02 -1.1 -3.18 -1.1 c-2.72 0 -5.08 2.12 -5.08 5.12 s2.36 5.12 5.08 5.12 c1.18 0 2.36 -0.44 3.24 -1.16 z M81.49600000000001 6 l2.2 0 l0 14 l-2.2 0 l0 -5.92 l-6.48 0 l0 5.92 l-2.2 0 l0 -14 l2.2 0 l0 6.04 l6.48 0 l0 -6.04 z M108.70800000000003 20 l-1.28 -2.96 l-7.16 0 l-1.28 2.96 l-2.34 0 l6.24 -14 l1.92 0 l6.24 14 l-2.34 0 z M101.06800000000001 15.219999999999999 l5.56 0 l-2.78 -6.44 z M133.5 6 l2.2 0 l0 14 l-1.68 0 l-7.82 -9.98 l0 9.98 l-2.2 0 l0 -14 l1.7 0 l7.8 10 l0 -10 z M162.672 12.780000000000001 c0.44 4.58 -2.62 7.42 -6.32 7.42 c-3.84 0 -7.2 -2.96 -7.2 -7.2 s3.44 -7.2 7.2 -7.2 c1.8 0 3.42 0.6 4.66 1.66 l-1.34 1.52 c-0.88 -0.68 -2.02 -1.1 -3.18 -1.1 c-2.72 0 -5.06 2.12 -5.06 5.12 s2.26 5.12 4.92 5.12 c2.22 0 3.86 -1.02 4.28 -3.44 l-3.74 0 l0 -1.9 l5.78 0 z M178.364 17.96 l6.34 0 l0 2.04 l-6.74 0 l-1.8 0 l0 -14 l2.2 0 l6.16 0 l0 2.04 l-6.16 0 l0 3.92 l4.74 0 l0 2 l-4.74 0 l0 4 z M224.628 20 l-4.96 -6.3 l-1.9 2.12 l0 4.18 l-2.26 0 l0 -14 l2.26 0 l0 6.88 l6.12 -6.88 l2.72 0 l-5.56 6.18 l6.14 7.82 l-2.56 0 z M249.73999999999998 6 l2.2 0 l0 14 l-1.68 0 l-7.82 -9.98 l0 9.98 l-2.2 0 l0 -14 l1.7 0 l7.8 10 l0 -10 z M272.592 5.800000000000001 c3.76 0 7.2 2.96 7.2 7.2 s-3.44 7.2 -7.2 7.2 s-7.2 -2.96 -7.2 -7.2 s3.44 -7.2 7.2 -7.2 z M272.592 18.12 c2.58 0 4.92 -2.12 4.92 -5.12 s-2.34 -5.12 -4.92 -5.12 s-4.92 2.12 -4.92 5.12 s2.34 5.12 4.92 5.12 z M312.00399999999996 6 l-4.56 14 l-1.52 0 l-3.6 -10.04 l-3.6 10.04 l-1.52 0 l-4.56 -14 l2.3 0 l3.1 9.6 l3.46 -9.6 l1.64 0 l3.46 9.6 l3.1 -9.6 l2.3 0 z M327.35599999999994 17.96 l5.94 0 l0 2.04 l-8.14 0 l0 -14 l2.2 0 l0 11.96 z M348.84799999999996 17.96 l6.34 0 l0 2.04 l-6.74 0 l-1.8 0 l0 -14 l2.2 0 l6.16 0 l0 2.04 l-6.16 0 l0 3.92 l4.74 0 l0 2 l-4.74 0 l0 4 z M373.16 6 c4.04 0 7.08 3.1 7.08 6.96 c0 3.94 -3.04 7.04 -7.08 7.04 l-4.52 0 l0 -14 l4.52 0 z M373.14 17.92 c3.06 0 4.86 -2.22 4.86 -4.96 c0 -2.66 -1.8 -4.88 -4.86 -4.88 l-2.3 0 l0 9.84 l2.3 0 z M406.812 12.780000000000001 c0.44 4.58 -2.62 7.42 -6.32 7.42 c-3.84 0 -7.2 -2.96 -7.2 -7.2 s3.44 -7.2 7.2 -7.2 c1.8 0 3.42 0.6 4.66 1.66 l-1.34 1.52 c-0.88 -0.68 -2.02 -1.1 -3.18 -1.1 c-2.72 0 -5.06 2.12 -5.06 5.12 s2.26 5.12 4.92 5.12 c2.22 0 3.86 -1.02 4.28 -3.44 l-3.74 0 l0 -1.9 l5.78 0 z M422.50399999999996 17.96 l6.34 0 l0 2.04 l-6.74 0 l-1.8 0 l0 -14 l2.2 0 l6.16 0 l0 2.04 l-6.16 0 l0 3.92 l4.74 0 l0 2 l-4.74 0 l0 4 z"></path></g>
			</g>
		</svg>
	